# xmcd
#
# Track frame offsets:
#	150
#	16977
#	33737
#
# Disc length: 713 seconds
#
# Revision: 0
# Processed by: cddbd v1.5.2PL0 Copyright (c) Steve Scherf et al.
# Submitted via: audiograbber 1.83.01
#
DISCID=1d02c703
DTITLE=LL Cool J - The Boomin' System
DYEAR=1990
DGENRE=R&B
TTITLE0=The Boomin' System (Radio 1)
TTITLE1=The Boomin' System (Radio 2)
TTITLE2=The Boomin' System (The Underground Mix)
EXTD=
EXTT0=
EXTT1=
EXTT2=
PLAYORDER=
